<?xml version="1.0" encoding="utf-8"?>
<!-- Generator: Adobe Illustrator 16.0.1, SVG Export Plug-In . SVG Version: 6.00 Build 0)  -->
<!DOCTYPE svg PUBLIC "-//W3C//DTD SVG 1.1//EN" "http://www.w3.org/Graphics/SVG/1.1/DTD/svg11.dtd">
<svg version="1.1" id="Layer_1" xmlns="http://www.w3.org/2000/svg" xmlns:xlink="http://www.w3.org/1999/xlink" x="0px" y="0px"
	 width="136px" height="136px" viewBox="0 0 136 136" enable-background="new 0 0 136 136" xml:space="preserve">
<path id="arrow-4-icon" fill="#E1DED9" d="M36.601,86.613V51.366h38.643V38.285l30.757,30.705L75.243,99.694V86.613H36.601z
	 M13.204,68c0,30.288,24.512,54.796,54.796,54.796c30.288,0,54.796-24.513,54.796-54.796c0-30.288-24.513-54.796-54.796-54.796
	C37.712,13.204,13.204,37.717,13.204,68z M136,68c0,37.556-30.445,68-68,68c-37.555,0-68-30.444-68-68C0,30.445,30.445,0,68,0
	C105.555,0,136,30.445,136,68z"/>
</svg>
