<?xml version="1.0" encoding="utf-8"?>
<!-- Generator: Adobe Illustrator 16.0.1, SVG Export Plug-In . SVG Version: 6.00 Build 0)  -->
<!DOCTYPE svg PUBLIC "-//W3C//DTD SVG 1.1//EN" "http://www.w3.org/Graphics/SVG/1.1/DTD/svg11.dtd">
<svg version="1.1" id="Layer_1" xmlns="http://www.w3.org/2000/svg" xmlns:xlink="http://www.w3.org/1999/xlink" x="0px" y="0px"
	 width="136px" height="136px" viewBox="-97.5 620.5 136 136" enable-background="new -97.5 620.5 136 136" xml:space="preserve">
<path id="compass-4-icon" fill="#E1DED9" d="M3.49,655.51l-30.904,16.418c-4.952-0.57-9.926,1.05-13.6,4.725
	c-3.645,3.645-5.225,8.58-4.746,13.348l-16.729,31.49l31.475-16.722c4.851,0.487,9.736-1.128,13.363-4.754
	c3.486-3.486,5.325-8.384,4.724-13.601L3.49,655.51z M-24.305,693.363c-2.778,2.777-7.28,2.777-10.058,0
	c-2.777-2.777-2.777-7.282,0-10.059c2.777-2.777,7.281-2.777,10.058,0C-21.527,686.082-21.527,690.585-24.305,693.363z
	 M-29.5,633.703c30.283,0,54.795,24.509,54.795,54.797c0,30.283-24.508,54.796-54.795,54.796c-30.284,0-54.796-24.508-54.796-54.796
	C-84.296,658.217-59.788,633.703-29.5,633.703 M-29.5,620.5c-37.555,0-68,30.445-68,68c0,37.556,30.444,68,68,68
	c37.555,0,68-30.444,68-68C38.5,650.945,8.055,620.5-29.5,620.5L-29.5,620.5z"/>
</svg>
