<?xml version="1.0" encoding="utf-8"?>
<!-- Generator: Adobe Illustrator 16.0.1, SVG Export Plug-In . SVG Version: 6.00 Build 0)  -->
<!DOCTYPE svg PUBLIC "-//W3C//DTD SVG 1.1//EN" "http://www.w3.org/Graphics/SVG/1.1/DTD/svg11.dtd">
<svg version="1.1" id="Layer_1" xmlns="http://www.w3.org/2000/svg" xmlns:xlink="http://www.w3.org/1999/xlink" x="0px" y="0px"
	 width="136px" height="136px" viewBox="0 0 136 136" enable-background="new 0 0 136 136" xml:space="preserve">
<path id="map-2-icon" fill="#E1DED9" d="M99.846,86.519c-2.512,0-4.954-0.504-7.258-1.5l2.706-6.273
	c1.445,0.625,2.976,0.94,4.552,0.94c1.292,0,2.563-0.215,3.78-0.641l2.246,6.453C103.932,86.176,101.903,86.519,99.846,86.519z
	 M36.556,86.391c-2.169,0-4.299-0.38-6.333-1.131l2.361-6.411c1.275,0.472,2.612,0.709,3.972,0.709c1.506,0,2.975-0.289,4.365-0.86
	l2.593,6.321C41.297,85.93,38.956,86.391,36.556,86.391z M86.799,81.849l-9.617-5.481l3.378-5.938l9.618,5.48L86.799,81.849z
	 M49.391,81.734l-3.51-5.861l9.494-5.694l3.51,5.861L49.391,81.734z M72.094,73.566c-1.408-0.588-2.896-0.886-4.425-0.886
	c-1.338,0-2.654,0.23-3.91,0.686l-2.324-6.426c2.004-0.725,4.101-1.093,6.233-1.093c2.438,0,4.811,0.476,7.057,1.414L72.094,73.566z
	 M114.562,72.619c-3.1,0-5.611,2.514-5.611,5.616c0,3.102,2.512,5.616,5.611,5.616s5.612-2.515,5.612-5.616
	C120.174,75.133,117.66,72.619,114.562,72.619z M21.475,72.619c-3.099,0-5.612,2.514-5.612,5.616c0,3.102,2.513,5.616,5.612,5.616
	s5.612-2.515,5.612-5.616C27.086,75.133,24.573,72.619,21.475,72.619z M136,21.523C136,9.637,126.37,0,114.493,0
	c-11.878,0-21.508,9.637-21.508,21.523c0,17.675,16.917,19.544,21.508,46.427C119.085,41.066,136,39.198,136,21.523z M106.78,21.001
	c0-4.263,3.452-7.719,7.713-7.719c4.259,0,7.713,3.457,7.713,7.719s-3.454,7.718-7.713,7.718
	C110.232,28.719,106.78,25.264,106.78,21.001z M126.08,62.232v47.389l-24.744,13.445V93.266h-4.959v29.26l-27.004-17.479V80.135
	h-4.729v24.911l-26.342,17.479v-29.26h-4.96v29.801L9.92,109.621V34.655l23.421,12.534v25.1h4.96V47.417l26.342-13.671v26.073h4.729
	V33.746l23.421,11.857c-3.398-4.284-6.934-9.058-8.649-15.589l-17.136-8.724L36.042,37.392L0,18.199v97.211L36.042,136
	l30.967-20.587L98.636,136L136,115.41V45.845c-0.22,0.276-0.438,0.549-0.655,0.821C131.786,51.125,128.378,55.4,126.08,62.232z"/>
</svg>
