<?xml version="1.0" encoding="utf-8"?>
<!-- Generator: Adobe Illustrator 16.0.1, SVG Export Plug-In . SVG Version: 6.00 Build 0)  -->
<!DOCTYPE svg PUBLIC "-//W3C//DTD SVG 1.1//EN" "http://www.w3.org/Graphics/SVG/1.1/DTD/svg11.dtd">
<svg version="1.1" id="Layer_1" xmlns="http://www.w3.org/2000/svg" xmlns:xlink="http://www.w3.org/1999/xlink" x="0px" y="0px"
	 width="136px" height="136px" viewBox="0 0 136 136" enable-background="new 0 0 136 136" xml:space="preserve">
<circle fill="#E1DED9" cx="68" cy="68" r="68"/>
<path fill="#FFFFFF" d="M108.398,60.536l-0.59-6.143l-4.917,3.505c-1.086-0.259-2.217-0.4-3.38-0.4
	c-1.921,0-3.755,0.377-5.436,1.055c0.033-0.391,0.053-0.785,0.053-1.185c0-6.013-3.663-11.185-8.873-13.406l-2.681-5.655
	l-3.107,4.499c-5.092,0.034-9.568,2.694-12.146,6.69c-2.377-3.682-6.364-6.229-10.96-6.632l-3.167-4.584l-2.458,5.185
	c-5.917,1.852-10.224,7.384-10.224,13.904c0,0.352,0.018,0.699,0.042,1.044c-1.582-0.591-3.292-0.915-5.077-0.915
	c-0.872,0-1.726,0.081-2.556,0.229l-4.716-3.361l-0.519,5.401c-4.066,2.586-6.773,7.129-6.773,12.295
	c0,8.031,6.534,14.563,14.564,14.563c1.348,0,2.651-0.187,3.891-0.53c0.644,1.445,1.728,3.157,3.552,4.82
	c4.947,4.51,13.157,6.796,24.402,6.796c11.244,0,19.454-2.286,24.4-6.796c1.862-1.696,2.952-3.444,3.592-4.908
	c1.33,0.4,2.739,0.618,4.198,0.618c8.03,0,14.564-6.532,14.564-14.563C114.076,67.375,111.848,63.202,108.398,60.536z
	 M55.077,47.444c5.473,0,9.925,4.452,9.925,9.925c0,5.472-4.452,9.923-9.925,9.923c-5.472,0-9.923-4.452-9.923-9.923
	C45.153,51.896,49.605,47.444,55.077,47.444z M35.477,81.986c-5.472,0-9.924-4.452-9.924-9.925c0-5.472,4.452-9.923,9.924-9.923
	c5.472,0,9.925,4.452,9.925,9.923C45.402,77.534,40.949,81.986,35.477,81.986z M88.896,82.244c0,0-0.003-0.045,0.006-0.127
	c-0.007,0.077-0.235,1.906-2.625,3.818c-2.539,2.03-7.888,4.449-18.956,4.449c-11.068,0-16.419-2.419-18.957-4.449
	c-1.932-1.546-2.451-3.036-2.583-3.592c2.63-2.637,4.26-6.272,4.26-10.282c0-0.351-0.018-0.698-0.042-1.043
	c1.582,0.591,3.292,0.914,5.077,0.914c5.133,0,9.649-2.671,12.245-6.693c2.593,4.022,7.112,6.693,12.244,6.693
	c1.92,0,3.753-0.378,5.434-1.056c-0.03,0.392-0.051,0.786-0.051,1.185c0,3.964,1.593,7.562,4.171,10.19L88.896,82.244z
	 M79.565,67.292c-5.472,0-9.924-4.452-9.924-9.923c0-5.473,4.452-9.925,9.924-9.925s9.923,4.452,9.923,9.925
	C89.488,62.841,85.037,67.292,79.565,67.292z M99.512,81.986c-5.472,0-9.925-4.452-9.925-9.925c0-5.472,4.453-9.923,9.925-9.923
	s9.924,4.452,9.924,9.923C109.436,77.534,104.983,81.986,99.512,81.986z"/>
</svg>
