<?xml version="1.0" encoding="utf-8"?>
<!-- Generator: Adobe Illustrator 16.0.1, SVG Export Plug-In . SVG Version: 6.00 Build 0)  -->
<!DOCTYPE svg PUBLIC "-//W3C//DTD SVG 1.1//EN" "http://www.w3.org/Graphics/SVG/1.1/DTD/svg11.dtd">
<svg version="1.1" id="Layer_1" xmlns="http://www.w3.org/2000/svg" xmlns:xlink="http://www.w3.org/1999/xlink" x="0px" y="0px"
	 width="92px" height="92px" viewBox="0 0 92 92" enable-background="new 0 0 92 92" xml:space="preserve">
<g>
	<g>
		<path fill="#696865" d="M72.326,49.775c0,0-0.388,0.775-6.043,0.775c-1.482,0-2.574,0-3.381,0v-3.104
			c0-1.614-1.307-2.921-2.92-2.921c-1.612,0-2.92,1.307-2.92,2.921v3.092l-1.7-0.008v-3.084c0-1.614-1.308-2.921-2.919-2.921
			c-1.613,0-2.92,1.307-2.92,2.921v3.062l-1.035-0.003v-3.06c0-1.614-1.307-2.921-2.92-2.921c-1.612,0-2.919,1.307-2.919,2.921
			v3.037l-1.035-0.004v-3.033c0-1.614-1.308-2.921-2.919-2.921c-1.613,0-2.921,1.307-2.921,2.921v3.012l-11.568-0.043v-2.969
			c0-1.614-1.307-2.921-2.919-2.921c-1.613,0-2.92,1.307-2.92,2.921v2.947l-5.028-0.019c0,0-0.793,4.087,0.136,7.004
			c0.017,0.007,2.691,1.169,5.514-0.001H19c1.104-0.494,2.324-0.773,3.611-0.773c1.289,0,2.513,0.278,3.617,0.773h0.001
			c0,0,0.006,0.003,0.007,0.004c0.036,0.016,0.071,0.031,0.106,0.048c0.614,0.274,3.832,1.552,7.166-0.052h0.003
			c1.104-0.495,2.328-0.773,3.618-0.773s2.513,0.278,3.618,0.773h0.002c0,0,0.004,0.002,0.009,0.005
			c0.191,0.087,0.38,0.179,0.563,0.278c1.049,0.46,3.395,1.221,5.798,0.191c0.289-0.172,0.588-0.328,0.896-0.469
			c0.003-0.002,0.007-0.004,0.011-0.006h0.004c1.104-0.495,2.328-0.773,3.618-0.773s2.513,0.278,3.617,0.773h0.001l0.004,0.002
			c0.201,0.09,0.396,0.188,0.59,0.293c1.094,0.465,3.605,1.18,6.611-0.262c0.021-0.009,0.042-0.018,0.063-0.027
			c0.005-0.002,0.009-0.004,0.014-0.006h0.001c1.104-0.495,2.327-0.773,3.616-0.773c1.287,0,2.507,0.279,3.61,0.773h0.011
			c0,0,3.276,1.633,6.822,0.002c1.336-1.902,2.369-5.021,2.369-10.137C78.978,47.244,78.979,44.508,72.326,49.775z"/>
	</g>
	<g>
		<circle fill="#696865" cx="21.286" cy="41.467" r="2.181"/>
	</g>
	<g>
		<circle fill="#696865" cx="38.694" cy="41.467" r="2.181"/>
	</g>
	<g>
		<circle fill="#696865" cx="45.568" cy="41.467" r="2.181"/>
	</g>
	<g>
		<circle fill="#696865" cx="52.443" cy="41.467" r="2.181"/>
	</g>
	<g>
		<circle fill="#696865" cx="59.982" cy="41.467" r="2.181"/>
	</g>
</g>
<g>
	<path fill="#696865" d="M46,92.001c-25.365,0-46-20.636-46-46C0,20.636,20.636,0,46,0c25.364,0,46,20.636,46,46.001
		C92,71.365,71.364,92.001,46,92.001z M46,3.131c-23.639,0-42.87,19.231-42.87,42.87C3.13,69.639,22.362,88.87,46,88.87
		c23.638,0,42.869-19.231,42.869-42.869C88.869,22.363,69.639,3.131,46,3.131z"/>
</g>
</svg>
