<?xml version="1.0" encoding="utf-8"?>
<!-- Generator: Adobe Illustrator 16.0.1, SVG Export Plug-In . SVG Version: 6.00 Build 0)  -->
<!DOCTYPE svg PUBLIC "-//W3C//DTD SVG 1.1//EN" "http://www.w3.org/Graphics/SVG/1.1/DTD/svg11.dtd">
<svg version="1.1" id="Layer_1" xmlns="http://www.w3.org/2000/svg" xmlns:xlink="http://www.w3.org/1999/xlink" x="0px" y="0px"
	 width="92px" height="92px" viewBox="0 0 92 92" enable-background="new 0 0 92 92" xml:space="preserve">
<g>
	<g>
		<circle fill="#696865" cx="48.353" cy="22.433" r="4.523"/>
	</g>
	<g>
		<path fill="#696865" d="M62.343,42.794l1.48-17.774l-2.095-0.174l-1.413,16.959c-2.436-1.135-6.167-2.833-6.167-2.833
			s-1.664-5.182-2.933-7.202c0,0-1.577-6.224-10.789-1.66c0,0-8.091,4.191-8.631,7.47l0.27,9.149c0,0-0.124,1.162,1.328,1.162
			c0,0,1.598,0.187,1.598-1.142l-0.021-7.51c0,0-0.312-1.328,3.9-3.154l0.119,14.081l-6.031,21.3c0,0-0.774,1.438,1.77,2.269
			c0,0,2.324,1.328,2.822-1.162l5.422-17.206c0,0,0.333-2.49,1.882-0.276c0,0,4.647,4.924,5.643,10.733l1.881,7.634
			c0,0,0,1.273,3.099-0.221c0,0,2.654-0.83,1.771-2.435l-3.265-10.733c0,0-0.886-5.145-6.694-11.84l0.94-12.282l3.706,6.771
			c0,0-0.442,1.086,6.197,2.635c0,0,0.86,0.344,1.852,0.437L57.64,73.916l2.095,0.175l2.397-28.778
			c0.031-0.024,0.064-0.044,0.094-0.07C62.226,45.242,63.239,43.445,62.343,42.794z"/>
	</g>
</g>
<g>
	<path fill="#696865" d="M46,92.001c-25.364,0-46-20.636-46-46S20.636,0,46,0c25.365,0,46,20.636,46,46S71.364,92.001,46,92.001z
		 M46,3.131C22.362,3.131,3.13,22.362,3.13,46S22.362,88.87,46,88.87c23.638,0,42.87-19.231,42.87-42.87S69.638,3.131,46,3.131z"/>
</g>
</svg>
