<?xml version="1.0" encoding="utf-8"?>
<!-- Generator: Adobe Illustrator 16.0.1, SVG Export Plug-In . SVG Version: 6.00 Build 0)  -->
<!DOCTYPE svg PUBLIC "-//W3C//DTD SVG 1.1//EN" "http://www.w3.org/Graphics/SVG/1.1/DTD/svg11.dtd">
<svg version="1.1" id="Layer_1" xmlns="http://www.w3.org/2000/svg" xmlns:xlink="http://www.w3.org/1999/xlink" x="0px" y="0px"
	 width="92px" height="92px" viewBox="0 0 92 92" enable-background="new 0 0 92 92" xml:space="preserve">
<g>
	<g>
		<path fill="#696865" d="M38.571,49.067c0,0-4.305,2.87-4.174,12.523c0.13,9.652-3.261,10.305-3.261,10.305
			s19.827-2.739,16.958-17.61L38.571,49.067z M36.484,66.938c0.783-18.001,3.273-14.61,3.273-14.61
			C44.334,58.852,36.484,66.938,36.484,66.938z"/>
	</g>
	<g>
		<path fill="#696865" d="M59.311,20.417c-1.402-0.716-3.119-0.161-3.836,1.241L43.921,44.261l-3.865,2.503l9.177,4.689
			l-0.235-4.597l11.553-22.604C61.268,22.851,60.713,21.134,59.311,20.417z"/>
	</g>
</g>
<g>
	<path fill="#696865" d="M46,92C20.636,92,0,71.364,0,45.999C0,20.636,20.636,0,46,0s46,20.636,46,45.999C92,71.364,71.364,92,46,92
		z M46,3.13c-23.638,0-42.869,19.231-42.869,42.869c0,23.639,19.231,42.87,42.869,42.87s42.869-19.231,42.869-42.87
		C88.869,22.362,69.638,3.13,46,3.13z"/>
</g>
</svg>
