<?xml version="1.0" encoding="utf-8"?>
<!-- Generator: Adobe Illustrator 16.0.1, SVG Export Plug-In . SVG Version: 6.00 Build 0)  -->
<!DOCTYPE svg PUBLIC "-//W3C//DTD SVG 1.1//EN" "http://www.w3.org/Graphics/SVG/1.1/DTD/svg11.dtd">
<svg version="1.1" id="Layer_1" xmlns="http://www.w3.org/2000/svg" xmlns:xlink="http://www.w3.org/1999/xlink" x="0px" y="0px"
	 width="92px" height="92px" viewBox="0 0 92 92" enable-background="new 0 0 92 92" xml:space="preserve">
<g>
	<g>
		<polygon fill="#696865" points="28.29,37.793 41.58,37.793 35.251,15.402 35.251,13.097 36.315,13.097 36.315,12.463 
			35.251,12.463 35.251,11.194 34.618,11.194 34.618,12.463 33.554,12.463 33.554,13.097 34.618,13.097 34.618,15.402 		"/>
	</g>
	<g>
		<path fill="#696865" d="M40.217,48.305h27.667L63.3,41.866H40.217v-2.589H29.651v32.326h1.96V60.46
			c0-1.835,1.488-3.323,3.323-3.323c1.835,0,3.324,1.488,3.324,3.323v11.143h0.783h1.175h24.229V50.024H40.217V48.305z
			 M34.935,51.226c-1.361,0-2.464-1.104-2.464-2.465c0-1.36,1.104-2.464,2.464-2.464c1.36,0,2.464,1.104,2.464,2.464
			C37.399,50.122,36.295,51.226,34.935,51.226z M53.262,56.908c0-1.835,1.489-3.323,3.324-3.323s3.324,1.488,3.324,3.323v6.242
			h-6.648V56.908z M42.374,56.908c0-1.835,1.489-3.323,3.325-3.323c1.835,0,3.323,1.488,3.323,3.323v6.242h-6.647V56.908z"/>
	</g>
</g>
<g>
	<path fill="#696865" d="M46,92.001c-25.365,0-46-20.636-46-46S20.636,0,46,0c25.364,0,46,20.636,46,46S71.364,92.001,46,92.001z
		 M46,3.131C22.362,3.131,3.13,22.362,3.13,46S22.362,88.87,46,88.87c23.637,0,42.869-19.231,42.869-42.87S69.638,3.131,46,3.131z"
		/>
</g>
</svg>
