<?xml version="1.0" encoding="utf-8"?>
<!-- Generator: Adobe Illustrator 16.0.1, SVG Export Plug-In . SVG Version: 6.00 Build 0)  -->
<!DOCTYPE svg PUBLIC "-//W3C//DTD SVG 1.1//EN" "http://www.w3.org/Graphics/SVG/1.1/DTD/svg11.dtd">
<svg version="1.1" id="Layer_1" xmlns="http://www.w3.org/2000/svg" xmlns:xlink="http://www.w3.org/1999/xlink" x="0px" y="0px"
	 width="92px" height="92px" viewBox="0 0 92 92" enable-background="new 0 0 92 92" xml:space="preserve">
<g>
	<path fill="#696865" d="M57.654,66.665h-0.522V61.15h-1.056c0.301-1.531-0.098-2.809-1.291-5.617
		c-1.479-3.479-0.957-9.565-0.957-9.565c0.609-7.336,2-7.23,2-7.23s3.479-1.125,3.653-3.293c0.173-2.168-0.87-3.392-2.782-3.652
		c-1.914-0.261-1.926-2.892-2.545-4.327c-0.619-1.435,0.098-3.261-2.707-3.098c-2.805,0.163-2.088-3.228-2.088-3.228
		c0.849,0.391,1.762,0.13,1.078-0.098c-0.686-0.229-0.783-0.848-0.783-0.848c-0.424-5.446-2.707-5.022-2.707-5.022
		c-3.914-0.261-3.467,3.75-3.467,3.75c-1.544-0.065-1.262,0.392-1.262,0.392c0.065,0.913,1.174,1.043,1.174,1.043
		c0.196,1.239,0,3.718,0,3.718c-5.544,2.153-4.59,2.805-4.59,2.805c0.692,2.544-0.693,5.022-0.693,5.022
		c-3.131,6.065-1.174,3.522-2.217,8.022c-1.044,4.5,0.717,5.535,0.717,5.535s4.694,4.336,0.346,7.846
		c-3.109,2.51-1.771,6.038-0.757,7.846h-2.025v5.532c-1.358,0.091-2.435,1.21-2.435,2.591v4.959c0,1.441,1.168,2.609,2.609,2.609
		h23.308c1.44,0,2.608-1.168,2.608-2.609v-4.959C60.263,67.833,59.095,66.665,57.654,66.665z"/>
</g>
<g>
	<path fill="#696865" d="M46,92.001C20.636,92.001,0,71.365,0,46C0,20.636,20.636,0,46,0s46,20.636,46,46
		C92,71.365,71.364,92.001,46,92.001z M46,3.131C22.362,3.131,3.131,22.362,3.131,46c0,23.639,19.231,42.87,42.869,42.87
		S88.869,69.639,88.869,46C88.869,22.362,69.638,3.131,46,3.131z"/>
</g>
</svg>
