<?xml version="1.0" encoding="utf-8"?>
<!-- Generator: Adobe Illustrator 16.0.1, SVG Export Plug-In . SVG Version: 6.00 Build 0)  -->
<!DOCTYPE svg PUBLIC "-//W3C//DTD SVG 1.1//EN" "http://www.w3.org/Graphics/SVG/1.1/DTD/svg11.dtd">
<svg version="1.1" id="Layer_1" xmlns="http://www.w3.org/2000/svg" xmlns:xlink="http://www.w3.org/1999/xlink" x="0px" y="0px"
	 width="92px" height="92px" viewBox="0 0 92 92" enable-background="new 0 0 92 92" xml:space="preserve">
<g>
	<g>
		<path fill="#696865" d="M63.119,40.998h8.286L46,13.672L20.595,40.998h8.286v20.316h-7.132v6.598h48.503v-6.598h-7.133V40.998z
			 M51.726,57.753l-0.256-6.625c-0.077-2.08-0.155-4.595-0.155-7.112h-0.076c-0.539,2.208-1.259,4.674-1.926,6.702l-2.105,6.752
			h-3.055l-1.849-6.701c-0.564-2.028-1.155-4.493-1.566-6.753h-0.051c-0.103,2.337-0.179,5.007-0.308,7.164l-0.309,6.573h-3.62
			l1.104-17.305h5.212l1.694,5.776c0.539,2.002,1.078,4.16,1.464,6.188h0.078c0.488-2.003,1.078-4.288,1.644-6.213l1.848-5.751
			h5.108l0.951,17.305H51.726z"/>
	</g>
</g>
<g>
	<path fill="#696865" d="M46,92.001c-25.364,0-46-20.636-46-46C0,20.636,20.636,0,46,0s46,20.636,46,46
		C92,71.365,71.364,92.001,46,92.001z M46,3.131C22.362,3.131,3.131,22.363,3.131,46c0,23.638,19.231,42.87,42.869,42.87
		c23.637,0,42.869-19.231,42.869-42.87C88.869,22.363,69.637,3.131,46,3.131z"/>
</g>
</svg>
