<?xml version="1.0" encoding="utf-8"?>
<!-- Generator: Adobe Illustrator 16.0.1, SVG Export Plug-In . SVG Version: 6.00 Build 0)  -->
<!DOCTYPE svg PUBLIC "-//W3C//DTD SVG 1.1//EN" "http://www.w3.org/Graphics/SVG/1.1/DTD/svg11.dtd">
<svg version="1.1" id="Layer_1" xmlns="http://www.w3.org/2000/svg" xmlns:xlink="http://www.w3.org/1999/xlink" x="0px" y="0px"
	 width="92px" height="92px" viewBox="0 0 92 92" enable-background="new 0 0 92 92" xml:space="preserve">
<g>
	<g>
		<path fill="#696865" d="M21.15,63.988c-1.113,1.111-1.157,2.873-0.097,3.934c1.058,1.059,2.82,1.016,3.932-0.098l3.785-3.785
			l-3.836-3.835L21.15,63.988z"/>
	</g>
	<g>
		<path fill="#696865" d="M53.819,56.714c1.159,1.159,3.087,1.112,4.306-0.106l9.854-9.855c1.219-1.218,1.267-3.146,0.106-4.306
			L46.528,20.889c-1.16-1.16-3.087-1.112-4.306,0.107l-9.855,9.854c-1.219,1.219-1.267,3.147-0.107,4.307l8.861,8.86L29.726,55.413
			l3.836,3.835l11.396-11.396L53.819,56.714z"/>
	</g>
	<g>
		
			<rect x="25.522" y="59.837" transform="matrix(0.7072 0.707 -0.707 0.7072 51.2098 -2.178)" fill="#696865" width="5.426" height="1.802"/>
	</g>
	<g>
		
			<rect x="27.606" y="57.756" transform="matrix(0.7071 0.7071 -0.7071 0.7071 50.3568 -4.2585)" fill="#696865" width="5.425" height="1.802"/>
	</g>
	<g>
		<path fill="#696865" d="M69.332,58.859c-1.314,0-2.381,1.065-2.381,2.381v1.787L39.83,65.404l27.122,2.552v1.616
			c0,1.313,1.065,2.379,2.381,2.379c1.314,0,2.381-1.064,2.381-2.379V61.24C71.711,59.925,70.646,58.859,69.332,58.859z"/>
	</g>
</g>
<g>
	<path fill="#696865" d="M46,92C20.636,92,0,71.364,0,46S20.636,0,46,0c25.363,0,46,20.636,46,46S71.363,92,46,92z M46,3.13
		C22.362,3.13,3.131,22.362,3.131,46c0,23.639,19.231,42.87,42.869,42.87c23.637,0,42.869-19.231,42.869-42.87
		C88.869,22.362,69.637,3.13,46,3.13z"/>
</g>
</svg>
