<?xml version="1.0" encoding="utf-8"?>
<!-- Generator: Adobe Illustrator 16.0.1, SVG Export Plug-In . SVG Version: 6.00 Build 0)  -->
<!DOCTYPE svg PUBLIC "-//W3C//DTD SVG 1.1//EN" "http://www.w3.org/Graphics/SVG/1.1/DTD/svg11.dtd">
<svg version="1.1" id="Layer_1" xmlns="http://www.w3.org/2000/svg" xmlns:xlink="http://www.w3.org/1999/xlink" x="0px" y="0px"
	 width="92px" height="92px" viewBox="0 0 92 92" enable-background="new 0 0 92 92" xml:space="preserve">
<g>
	<path fill="#696865" d="M68.377,47.855c-0.119-1.698-0.391-3.351-0.802-4.938c0.632-0.585,1.032-1.415,1.032-2.344
		c0-1.756-1.412-3.179-3.162-3.204c-1.168-2.236-2.646-4.248-4.361-5.973l0.011-0.012c0,0,1.395-3.439-3.188-6.401
		c-4.583-2.961-8.541-2.765-11.756-2.787c-3.216,0.022-7.174-0.174-11.757,2.787c-4.583,2.962-3.188,6.401-3.188,6.401l0.003,0.004
		c-1.718,1.727-3.198,3.742-4.368,5.982c-1.743,0.033-3.147,1.451-3.147,3.202c0,0.923,0.396,1.749,1.021,2.335
		c-0.404,1.555-0.671,3.174-0.794,4.837c-2.584,0.889-4.167,3.581-3.59,6.325l2.386,11.362c0.624,2.974,3.54,4.877,6.512,4.253
		c2.974-0.624,4.877-3.54,4.253-6.513l-2.385-11.362c-0.495-2.357-2.433-4.038-4.696-4.323c0.116-1.272,0.318-2.517,0.616-3.718
		c1.718-0.061,3.094-1.463,3.094-3.196c0-0.908-0.38-1.724-0.986-2.308c3.479-6.488,9.805-10.838,17.021-10.838
		c7.219,0,13.547,4.353,17.025,10.847c-0.601,0.583-0.976,1.396-0.976,2.299c0,1.727,1.368,3.126,3.079,3.195
		c0.296,1.193,0.497,2.428,0.615,3.69c-2.384,0.176-4.463,1.897-4.979,4.353l-2.384,11.362c-0.625,2.973,1.278,5.889,4.253,6.513
		c2.972,0.624,5.888-1.279,6.512-4.253l2.386-11.362C72.226,51.432,70.786,48.842,68.377,47.855z"/>
</g>
<g>
	<path fill="#696865" d="M46,92C20.636,92,0,71.365,0,46C0,20.636,20.636,0,46,0s46,20.636,46,46C92,71.365,71.364,92,46,92z
		 M46,3.131C22.362,3.131,3.131,22.362,3.131,46c0,23.639,19.231,42.869,42.869,42.869c23.639,0,42.87-19.23,42.87-42.869
		C88.87,22.362,69.639,3.131,46,3.131z"/>
</g>
</svg>
